<?xml version="1.0" encoding="UTF-8"?>
<svg xmlns="http://www.w3.org/2000/svg" xmlns:xlink="http://www.w3.org/1999/xlink" width="16px" height="16px" viewBox="0 0 16 16" version="1.1">
<g id="surface1">
<path style=" stroke:none;fill-rule:nonzero;fill:rgb(0%,0%,0%);fill-opacity:1;" d="M 15.101562 7.367188 C 14.398438 6.5 11.800781 3.667969 8 3.667969 C 7.03125 3.664062 6.070312 3.84375 5.167969 4.199219 L 3.234375 2.300781 C 2.96875 2.101562 2.597656 2.128906 2.363281 2.363281 C 2.128906 2.597656 2.101562 2.96875 2.300781 3.234375 L 12.765625 13.699219 C 12.921875 13.910156 13.1875 14.007812 13.441406 13.953125 C 13.695312 13.894531 13.894531 13.695312 13.953125 13.441406 C 14.007812 13.1875 13.910156 12.921875 13.699219 12.765625 L 12.132812 11.167969 C 13.269531 10.511719 14.273438 9.652344 15.101562 8.632812 C 15.402344 8.265625 15.402344 7.734375 15.101562 7.367188 Z M 11.132812 10.199219 L 9.800781 8.867188 C 9.933594 8.597656 10 8.300781 10 8 C 10 6.894531 9.105469 6 8 6 C 7.699219 6 7.402344 6.066406 7.132812 6.199219 L 6.199219 5.265625 C 6.785156 5.09375 7.390625 5.003906 8 5 C 10.933594 5 13.101562 7.066406 13.898438 8 C 13.117188 8.894531 12.179688 9.636719 11.132812 10.199219 Z M 11.132812 10.199219 "/>
<path style=" stroke:none;fill-rule:nonzero;fill:rgb(0%,0%,0%);fill-opacity:1;" d="M 3.464844 5.867188 C 3.203125 5.667969 2.828125 5.695312 2.59375 5.929688 C 2.359375 6.164062 2.335938 6.535156 2.535156 6.800781 L 7.535156 11.800781 C 7.796875 12 8.171875 11.972656 8.40625 11.738281 C 8.640625 11.503906 8.664062 11.132812 8.464844 10.867188 Z M 3.464844 5.867188 "/>
<path style=" stroke:none;fill-rule:nonzero;fill:rgb(0%,0%,0%);fill-opacity:1;" d="M 1.800781 7.535156 C 1.679688 7.402344 1.511719 7.328125 1.332031 7.328125 C 1.15625 7.328125 0.988281 7.402344 0.867188 7.535156 C 0.734375 7.652344 0.660156 7.824219 0.660156 8 C 0.660156 8.175781 0.734375 8.347656 0.867188 8.464844 L 3.199219 10.800781 C 3.464844 11 3.835938 10.972656 4.070312 10.738281 C 4.304688 10.503906 4.332031 10.132812 4.132812 9.867188 Z M 1.800781 7.535156 "/>
</g>
</svg>
