<?xml version="1.0" encoding="UTF-8"?>
<svg xmlns="http://www.w3.org/2000/svg" xmlns:xlink="http://www.w3.org/1999/xlink" width="16px" height="16px" viewBox="0 0 16 16" version="1.1">
<g id="surface1">
<path style=" stroke:none;fill-rule:nonzero;fill:rgb(0%,0%,0%);fill-opacity:1;" d="M 1.351562 6.644531 C 1.09375 6.285156 1.175781 5.785156 1.535156 5.527344 C 1.890625 5.269531 2.390625 5.351562 2.648438 5.710938 C 2.894531 6.050781 3.269531 6.371094 3.753906 6.652344 C 4.789062 7.25 6.222656 7.601562 7.761719 7.601562 C 9.304688 7.601562 10.738281 7.25 11.773438 6.652344 C 12.257812 6.371094 12.632812 6.050781 12.878906 5.710938 C 13.136719 5.351562 13.632812 5.269531 13.992188 5.527344 C 14.351562 5.785156 14.433594 6.285156 14.175781 6.644531 C 13.792969 7.179688 13.246094 7.652344 12.574219 8.039062 C 11.285156 8.78125 9.574219 9.199219 7.761719 9.199219 C 5.953125 9.199219 4.242188 8.78125 2.953125 8.039062 C 2.28125 7.652344 1.734375 7.179688 1.351562 6.644531 Z M 1.351562 6.644531 "/>
<path style=" stroke:none;fill-rule:nonzero;fill:rgb(0%,0%,0%);fill-opacity:1;" d="M 8.800781 8.800781 C 8.800781 8.359375 8.441406 8 8 8 C 7.558594 8 7.199219 8.359375 7.199219 8.800781 L 7.199219 10.800781 C 7.199219 11.242188 7.558594 11.601562 8 11.601562 C 8.441406 11.601562 8.800781 11.242188 8.800781 10.800781 Z M 8.800781 8.800781 "/>
<path style=" stroke:none;fill-rule:nonzero;fill:rgb(0%,0%,0%);fill-opacity:1;" d="M 4.425781 8.605469 C 4.53125 8.175781 4.964844 7.917969 5.394531 8.023438 C 5.824219 8.132812 6.082031 8.566406 5.976562 8.992188 L 5.574219 10.59375 C 5.46875 11.023438 5.035156 11.285156 4.605469 11.175781 C 4.175781 11.070312 3.917969 10.632812 4.023438 10.207031 Z M 4.425781 8.605469 "/>
<path style=" stroke:none;fill-rule:nonzero;fill:rgb(0%,0%,0%);fill-opacity:1;" d="M 11.175781 8.605469 C 11.070312 8.175781 10.632812 7.917969 10.207031 8.023438 C 9.777344 8.132812 9.515625 8.566406 9.625 8.992188 L 10.023438 10.59375 C 10.132812 11.023438 10.566406 11.285156 10.992188 11.175781 C 11.421875 11.070312 11.683594 10.632812 11.574219 10.207031 Z M 11.175781 8.605469 "/>
<path style=" stroke:none;fill-rule:nonzero;fill:rgb(0%,0%,0%);fill-opacity:1;" d="M 13.21875 6.632812 C 12.90625 6.320312 12.402344 6.320312 12.089844 6.632812 C 11.777344 6.945312 11.777344 7.453125 12.089844 7.765625 L 13.6875 9.367188 C 14 9.679688 14.507812 9.679688 14.820312 9.367188 C 15.132812 9.054688 15.132812 8.546875 14.820312 8.234375 Z M 13.21875 6.632812 "/>
<path style=" stroke:none;fill-rule:nonzero;fill:rgb(0%,0%,0%);fill-opacity:1;" d="M 2.460938 6.660156 C 2.757812 6.335938 3.265625 6.3125 3.59375 6.609375 C 3.917969 6.90625 3.945312 7.410156 3.644531 7.738281 L 2.191406 9.339844 C 1.894531 9.664062 1.390625 9.6875 1.0625 9.390625 C 0.734375 9.09375 0.710938 8.589844 1.007812 8.261719 Z M 2.460938 6.660156 "/>
</g>
</svg>
