<?xml version="1.0" encoding="UTF-8"?>
<svg xmlns="http://www.w3.org/2000/svg" xmlns:xlink="http://www.w3.org/1999/xlink" width="16px" height="16px" viewBox="0 0 16 16" version="1.1">
<g id="surface1">
<path style=" stroke:none;fill-rule:nonzero;fill:rgb(0%,0%,0%);fill-opacity:1;" d="M 15.457031 7.535156 L 13.890625 6.066406 C 12.3125 4.585938 10.222656 3.773438 8 3.773438 C 5.777344 3.773438 3.6875 4.585938 2.113281 6.066406 L 0.546875 7.535156 C 0.167969 7.9375 0.414062 8.363281 0.546875 8.464844 L 2.113281 9.933594 C 3.6875 11.414062 5.777344 12.226562 8 12.226562 C 10.222656 12.226562 12.3125 11.414062 13.886719 9.933594 L 15.453125 8.464844 C 15.601562 8.34375 15.835938 7.914062 15.457031 7.535156 Z M 8 9.875 C 6.964844 9.875 6.125 9.035156 6.125 8 C 6.125 6.964844 6.964844 6.125 8 6.125 C 9.035156 6.125 9.875 6.964844 9.875 8 C 9.875 9.035156 9.035156 9.875 8 9.875 Z M 1.914062 8 L 2.988281 6.996094 C 3.988281 6.058594 5.238281 5.4375 6.597656 5.179688 C 5.5625 5.699219 4.851562 6.769531 4.851562 8 C 4.851562 9.230469 5.566406 10.304688 6.597656 10.820312 C 5.238281 10.566406 3.988281 9.941406 2.988281 9.003906 Z M 13.015625 9.003906 C 12.015625 9.941406 10.765625 10.566406 9.40625 10.820312 C 10.441406 10.300781 11.148438 9.230469 11.148438 8 C 11.148438 6.769531 10.4375 5.699219 9.40625 5.179688 C 10.765625 5.433594 12.015625 6.058594 13.015625 6.996094 L 14.085938 8 Z M 13.015625 9.003906 "/>
<path style=" stroke:none;fill-rule:nonzero;fill:rgb(0%,0%,0%);fill-opacity:1;" d="M 8 7.351562 C 7.648438 7.351562 7.351562 7.648438 7.351562 8 C 7.351562 8.351562 7.648438 8.648438 8 8.648438 C 8.351562 8.648438 8.648438 8.351562 8.648438 8 C 8.648438 7.648438 8.351562 7.351562 8 7.351562 Z M 8 7.351562 "/>
</g>
</svg>
